<svg id="Layer_1" data-name="Layer 1" xmlns="http://www.w3.org/2000/svg" viewBox="0 0 35.38 35.38"><defs><style>.cls-1{fill:#0080ff;}.cls-2{fill:#fff;}</style></defs><path class="cls-1" d="M35.38,17.65A17.69,17.69,0,1,0,14.93,35.13V22.76h-4.5V17.65h4.5v-3.9c0-4.43,2.64-6.88,6.68-6.88a27,27,0,0,1,4,.35v4.35H23.34a2.56,2.56,0,0,0-2.89,2.76v3.32h4.91l-.78,5.11H20.45V35.13A17.7,17.7,0,0,0,35.38,17.65Z" transform="translate(0 0.04)"/><path class="cls-2" d="M24.58,22.76l.78-5.11H20.45V14.33a2.56,2.56,0,0,1,2.89-2.76h2.23V7.22a27,27,0,0,0-4-.35c-4,0-6.68,2.45-6.68,6.88v3.9h-4.5v5.11h4.5V35.13a18.24,18.24,0,0,0,5.52,0V22.76Z" transform="translate(0 0.04)"/></svg>