<svg id="Layer_1" data-name="Layer 1" xmlns="http://www.w3.org/2000/svg" xmlns:xlink="http://www.w3.org/1999/xlink" viewBox="0 0 35.38 35.38"><defs><style>.cls-1{fill:url(#linear-gradient);}.cls-2{fill:#fff;}</style><linearGradient id="linear-gradient" x1="1.12" y1="3.69" x2="36.49" y2="33.57" gradientUnits="userSpaceOnUse"><stop offset="0" stop-color="#ffe185"/><stop offset="0.21" stop-color="#ffbb36"/><stop offset="0.38" stop-color="#ff5176"/><stop offset="0.52" stop-color="#f63395"/><stop offset="0.74" stop-color="#a436d2"/><stop offset="1" stop-color="#5f4eed"/></linearGradient></defs><circle class="cls-1" cx="17.69" cy="17.69" r="17.69"/><path class="cls-2" d="M23.18,11a1.22,1.22,0,1,0,1.22,1.21A1.21,1.21,0,0,0,23.18,11Z" transform="translate(0 0.04)"/><path class="cls-2" d="M17.78,12.52a5.11,5.11,0,1,0,5.1,5.11A5.11,5.11,0,0,0,17.78,12.52Zm0,8.38a3.28,3.28,0,1,1,3.27-3.27A3.28,3.28,0,0,1,17.78,20.9Z" transform="translate(0 0.04)"/><path class="cls-2" d="M21.83,28H13.55a6.24,6.24,0,0,1-6.23-6.23V13.49a6.24,6.24,0,0,1,6.23-6.24h8.28a6.24,6.24,0,0,1,6.23,6.24v8.28A6.24,6.24,0,0,1,21.83,28ZM13.55,9.21a4.28,4.28,0,0,0-4.28,4.28v8.28a4.28,4.28,0,0,0,4.28,4.28h8.28a4.28,4.28,0,0,0,4.28-4.28V13.49a4.28,4.28,0,0,0-4.28-4.28Z" transform="translate(0 0.04)"/></svg>