<svg id="Layer_1" data-name="Layer 1" xmlns="http://www.w3.org/2000/svg" viewBox="0 0 34.98 34.98"><defs><style>.cls-1{fill:#007fbe;}.cls-2{fill:#fff;}</style></defs><path class="cls-1" d="M35.18,17.65A17.49,17.49,0,1,1,17.69.16,17.48,17.48,0,0,1,35.18,17.65Z" transform="translate(-0.2 -0.16)"/><path class="cls-2" d="M12.49,10.1A2.5,2.5,0,1,1,10,7.59,2.51,2.51,0,0,1,12.49,10.1Z" transform="translate(-0.2 -0.16)"/><path class="cls-2" d="M18.84,16.08V14H14.79V27.72h4.05c0-1.91,0-3.81,0-5.71,0-.49,0-1,0-1.48a4.23,4.23,0,0,1,.21-1.16,2.24,2.24,0,0,1,1.07-1.29,2.63,2.63,0,0,1,1.29-.27,2.31,2.31,0,0,1,.9.16,2,2,0,0,1,1.09,1.2,4.42,4.42,0,0,1,.26,1.61v6.94h4.21V19.53a8.71,8.71,0,0,0-.06-1.14,6,6,0,0,0-.39-1.62,4.24,4.24,0,0,0-2-2.24A5.4,5.4,0,0,0,23.09,14,5.31,5.31,0,0,0,22,14a4.71,4.71,0,0,0-2.61,1.39,4.44,4.44,0,0,0-.59.75Z" transform="translate(-0.2 -0.16)"/><path class="cls-2" d="M12.12,14H7.89V27.72h4.23V14Z" transform="translate(-0.2 -0.16)"/></svg>