<svg id="Layer_1" data-name="Layer 1" xmlns="http://www.w3.org/2000/svg" viewBox="0 0 35.38 35.38"><defs><style>.cls-1{fill:red;}.cls-2{fill:#fff;}</style></defs><path class="cls-1" d="M17.69,0a17.68,17.68,0,0,0-7.22,33.83c0-.5,0-1,0-1.49.05-1.72.27-2.31,2.48-11.64a.59.59,0,0,0,0-.39,6.59,6.59,0,0,1-.17-4.36c1-3.18,4.61-3.42,5.24-.8.39,1.63-.64,3.75-1.43,6.89-.65,2.59,2.4,4.43,5,2.54,2.4-1.74,3.33-5.92,3.16-8.89-.35-5.9-6.83-7.18-10.94-5.28C9,12.55,8,18.39,10.1,21.06c.27.34.47.55.38.89-.13.54-.25,1.07-.4,1.61a.56.56,0,0,1-.84.37,4.7,4.7,0,0,1-2-1.47C5.46,20.22,5,15.8,7.34,12.05,10,7.9,14.9,6.22,19.4,6.73c5.37.61,8.76,4.28,9.39,8.44A14,14,0,0,1,26.21,25c-3.06,3.8-8,4.05-10.31,1.72-.17-.18-.32-.39-.49-.6,0,.08-.05.16-.06.23-1.1,4.31-1.23,5.26-2.36,7.26-.17.31-.36.6-.55.9A17.69,17.69,0,1,0,17.69,0Z" transform="translate(0 0.04)"/><path class="cls-2" d="M15.35,26.39c0-.07,0-.15.06-.23.17.21.32.42.49.6,2.29,2.33,7.25,2.08,10.31-1.72a14,14,0,0,0,2.58-9.87c-.63-4.16-4-7.83-9.39-8.44C14.9,6.22,10,7.9,7.34,12.05,5,15.8,5.46,20.22,7.27,22.46a4.7,4.7,0,0,0,2,1.47.56.56,0,0,0,.84-.37c.15-.54.27-1.07.4-1.61.09-.34-.11-.55-.38-.89C8,18.39,9,12.55,13.75,10.37c4.11-1.9,10.59-.62,10.94,5.28.17,3-.76,7.15-3.16,8.89-2.61,1.89-5.66.05-5-2.54.79-3.14,1.82-5.26,1.43-6.89-.63-2.62-4.23-2.38-5.24.8a6.59,6.59,0,0,0,.17,4.36.59.59,0,0,1,0,.39C10.72,30,10.5,30.58,10.45,32.3c0,.5,0,1,0,1.49a16.71,16.71,0,0,0,2,.76c.19-.3.38-.59.55-.9C14.12,31.65,14.25,30.7,15.35,26.39Z" transform="translate(0 0.04)"/></svg>