<svg id="Layer_1" data-name="Layer 1" xmlns="http://www.w3.org/2000/svg" viewBox="0 0 35.38 35.38"><defs><style>.cls-1{fill:#0cf;}.cls-2{fill:#fff;}</style></defs><circle class="cls-1" cx="17.69" cy="17.69" r="17.69"/><path class="cls-2" d="M27.47,11.59a8.43,8.43,0,0,1-2,.56c.32-.06.78-.63,1-.86a3.33,3.33,0,0,0,.65-1.18.08.08,0,0,0,0-.1A.14.14,0,0,0,27,10a10,10,0,0,1-2.31.89.15.15,0,0,1-.16-.05l-.2-.2A4.18,4.18,0,0,0,23.22,10a4.07,4.07,0,0,0-1.72-.28,4.19,4.19,0,0,0-1.63.46,4.32,4.32,0,0,0-1.32,1.08,3.94,3.94,0,0,0-.82,3.23c0,.1,0,.11-.08.1A12.35,12.35,0,0,1,9.7,10.51c-.1-.11-.15-.11-.22,0a4,4,0,0,0,.68,4.76c.16.15.32.3.49.43a4.07,4.07,0,0,1-1.53-.43c-.09-.06-.14,0-.15.08a2.48,2.48,0,0,0,0,.46,4.08,4.08,0,0,0,2.51,3.25,3,3,0,0,0,.51.15,4.45,4.45,0,0,1-1.51.05c-.11,0-.15,0-.11.14a4.23,4.23,0,0,0,3.16,2.64l.44.06,0,0a5.06,5.06,0,0,1-2.16,1.14,7.63,7.63,0,0,1-3.28.42c-.17,0-.21,0-.26,0s0,.07.05.12c.23.15.45.28.68.41a10.72,10.72,0,0,0,2.2.87,11.67,11.67,0,0,0,11.33-2.65,11.9,11.9,0,0,0,3.14-8.67c0-.13.14-.2.23-.26a7.84,7.84,0,0,0,1.54-1.61.46.46,0,0,0,.1-.3v0C27.54,11.54,27.54,11.55,27.47,11.59Z" transform="translate(0 0.04)"/></svg>